<svg id="Layer_1" data-name="Layer 1" xmlns="http://www.w3.org/2000/svg" viewBox="0 0 167.71 469.26"><defs><style>.cls-1{fill:#fff;}.cls-1,.cls-2{stroke:#000;stroke-miterlimit:10;}.cls-2{fill:none;}</style></defs><title>cello</title><path class="cls-1" d="M250,486.57" transform="translate(-164 -14.49)"/><path class="cls-1" d="M259,11.57" transform="translate(-164 -14.49)"/><polygon points="107.29 16.17 97.09 19.13 97.09 12.27 107.29 9.3 107.29 16.17"/><polygon points="107.29 25.87 97.09 28.83 97.09 21.96 107.29 19 107.29 25.87"/><polygon points="87.74 22.23 82.64 25.19 82.64 18.33 87.74 15.36 87.74 22.23"/><polygon points="87.74 31.93 82.64 34.89 82.64 28.02 87.74 25.06 87.74 31.93"/><path class="cls-2" d="M259.57,194.2" transform="translate(-164 -14.49)"/><path d="M237.69,339.64v.19h14.72v-.19Zm2.38-55.15v.19h11v-.19Z" transform="translate(-164 -14.49)"/><path d="M331.5,400.89c-2.77-31.34-13.27-41.87-12.58-48.53.24-2.28,1.54-2.26,3.75-3.15L321,344.84c-19.38,0-23.16-23.2-22.29-34.95.42-5.72,2.36-22,11-18.63l1.9-2.24s-4.38-5.16-5.56-6.13a.88.88,0,0,1-.29-.86c1-4.6,7.82-38.62-1.67-57.82s-26.85-27.86-44.6-30.07L258.06,14.49,241.6,194.07v.13l-1.52,90.29h11v.19h4.28L256.63,337l-4.28-.07-1.28-52.27h-11v-.19h-4.28l1.52-90.61c-18.15,2-36.09,10.66-45.76,30.21-9.49,19.2-2.65,53.22-1.67,57.82a.86.86,0,0,1-.29.85c-1.18,1-5.56,6.14-5.56,6.14l1.9,2.23c8.68-3.33,10.62,12.92,11,18.63.87,11.75-2.91,35-22.29,35l-1.63,4.37c2.21.89,3.51.86,3.75,3.15.69,6.66-9.81,17.19-12.58,48.52s21.48,49.69,44.5,53.67c24.87,4.29,37,3.9,37,3.9s3.16.1,9.57-.37l-2.88-118.13h4.28l2.88,118.25c6.14-.44,15.26-1.43,27.43-3.53C310,450.58,334.27,432.21,331.5,400.89Zm-113.13-96a7.38,7.38,0,0,0-4.24.78,8.25,8.25,0,0,0-3.09,2.95,13.82,13.82,0,0,0-1.66,4.13,15.13,15.13,0,0,0-.35,4.46,40,40,0,0,0,2,9.2,62.09,62.09,0,0,1,2.29,9.74,18.29,18.29,0,0,1-1.51,10.24,13.65,13.65,0,0,1-3.1,4.26,10.4,10.4,0,0,1-4.65,2.47,8.25,8.25,0,0,1-5.15-.47,7.4,7.4,0,0,1-3.58-3.42,7.5,7.5,0,0,0,3.87,2.65,7.41,7.41,0,0,0,4.47-.16,10.41,10.41,0,0,0,6-6.27,16.74,16.74,0,0,0,.83-8.94,65.1,65.1,0,0,0-2.36-9.25,40.72,40.72,0,0,1-1.92-9.94,17.53,17.53,0,0,1,.64-5.23,14.35,14.35,0,0,1,2.27-4.79,10.05,10.05,0,0,1,4.19-3.41,9.09,9.09,0,0,1,5.32-.45,10,10,0,0,1,7.19,6.61A9.92,9.92,0,0,0,218.37,304.92Zm15,34.72V337h4.28v2.66Z" transform="translate(-164 -14.49)"/><rect x="76.07" y="270" width="11" height="0.19"/><path d="M241.59,194.2v0Z" transform="translate(-164 -14.49)"/><polygon points="91.29 443.47 95.57 443.59 94.5 469.26 91.29 443.47"/></svg>