<svg id="Layer_1" data-name="Layer 1" xmlns="http://www.w3.org/2000/svg" viewBox="0 0 213.63 369.13"><defs><style>.cls-1{stroke:#000;stroke-linecap:round;stroke-miterlimit:10;}</style></defs><title>clarinet</title><path class="cls-1" d="M217,85.32" transform="translate(-152.78 -82.34)"/><path d="M366.41,427.72c-.05,0-.84.33-1,.37s-4.45,2.24-7.77-1h0c-18-14.86-119.15-205.4-119.15-205.4l-13.4,7.13-1.41-2.65,13.37-7.12-27.31-50.23,3.93-2.09-2.11-4-9.78,5.2,7.52,14.13-8.61,4.58L258.63,298l12.72-6.77,1.41,2.65L260,300.6,258.63,298l-5,2.65,2.65,5,4.93-2.63,1.4,2.69,12.79-6.81,1.41,2.65L264,308.29l-1.41-2.65-5,2.65,2.65,5,4.94-2.63s58.38,110.32,61.39,133c.63,4.71-4.65,7.66-5,7.85,8.45-3.41,18.76-8.41,24.2-11.35S359.82,431.81,366.41,427.72Z" transform="translate(-152.78 -82.34)"/><path d="M192.18,136.49l14,25.77-8.45,4.5,7.52,14.13L199.33,184,178.4,143.82l-7.56-10.51-13.63-29.86s-8-17.88-2.5-20.8c5.32-2.83,15.65,13.91,15.65,13.91l17.49,27.79Z" transform="translate(-152.78 -82.34)"/><rect x="155.87" y="113.67" width="4.5" height="4.5" transform="translate(-186.88 -5.05) rotate(-24.88)"/><rect x="158.71" y="119.79" width="4.5" height="4.5" transform="translate(-189.19 -3.28) rotate(-24.88)"/><polygon points="34.45 84.97 77.05 165.04 71.06 168.23 68.94 164.26 72.92 162.15 71.48 159.44 67.51 161.56 65.39 157.59 69.36 155.47 32.43 86.05 34.45 84.97"/><rect x="252.48" y="237.72" width="4.5" height="4.5" transform="translate(-235.65 65.43) rotate(-28.02)"/><rect x="248.93" y="231.04" width="4.5" height="4.5" transform="translate(-232.93 62.98) rotate(-28.02)"/><rect x="245.46" y="224.51" width="4.5" height="4.5" transform="translate(-230.27 60.58) rotate(-28.02)"/><rect x="272.82" y="240.21" width="3.39" height="71.52" transform="translate(-250.24 78.94) rotate(-28.02)"/></svg>