<?xml version="1.0" encoding="utf-8"?>
<!-- Generator: Adobe Illustrator 22.1.0, SVG Export Plug-In . SVG Version: 6.00 Build 0)  -->
<svg version="1.1" id="Layer_1" xmlns="http://www.w3.org/2000/svg" xmlns:xlink="http://www.w3.org/1999/xlink" x="0px" y="0px"
	 viewBox="0 0 271 243" style="enable-background:new 0 0 271 243;" xml:space="preserve">
<style type="text/css">
	.st0{fill:none;stroke:#000000;stroke-miterlimit:10;}
</style>
<title>piano</title>
<rect x="9.7" y="150.5" width="252" height="10"/>
<path class="st0" d="M18.7,99"/>
<path class="st0" d="M18.7,99"/>
<path class="st0" d="M216.7,0"/>
<polygon points="216.7,0 33.6,95.1 252.5,112.8 26,99 18.7,99 "/>
<polygon points="270.5,135.2 270.5,162.2 265.8,162.2 264.1,158.7 264.1,150.2 252.5,135.2 252.5,135.3 18.5,135.3 18.5,135.2 
	6.8,150.2 6.9,158.7 5.2,162.2 0.5,162.2 0.5,135.2 18.5,126.2 232,125.1 18.5,122 18.5,112.8 252.5,112.8 252.5,126.2 "/>
<polygon points="9.7,163.3 18.7,163.3 14.2,243 "/>
<polygon points="18.7,147 15.7,147 19.8,137.5 22.8,137.5 "/>
<polygon points="25.8,147 22.8,147 27,137.5 30,137.5 "/>
<polygon points="29.4,147 26.4,147 30.6,137.5 33.6,137.5 "/>
<polygon points="35.7,147 32.7,147 36.8,137.5 39.8,137.5 "/>
<polygon points="39.3,147 36.3,147 40.4,137.5 43.4,137.5 "/>
<polygon points="42.8,147 39.8,147 44,137.5 47,137.5 "/>
<polygon points="49.3,147 46.3,147 50.4,137.5 53.4,137.5 "/>
<polygon points="52.8,147 49.8,147 54,137.5 57,137.5 "/>
<polygon points="59.1,147 56.1,147 60.3,137.5 63.3,137.5 "/>
<polygon points="62.7,147 59.7,147 63.8,137.5 66.8,137.5 "/>
<polygon points="66.3,147 63.3,147 67.4,137.5 70.4,137.5 "/>
<polygon points="73.4,147.2 70.4,147.2 74.6,137.7 77.6,137.7 "/>
<polygon points="77,147.2 74,147.2 78.2,137.7 81.2,137.7 "/>
<polygon points="83.3,147.2 80.3,147.2 84.4,137.7 87.4,137.7 "/>
<polygon points="86.8,147.2 83.8,147.2 88,137.7 91,137.7 "/>
<polygon points="90.4,147.2 87.4,147.2 91.6,137.7 94.6,137.7 "/>
<polygon points="96.8,147.2 93.8,147.2 98,137.7 101,137.7 "/>
<polygon points="100.4,147.2 97.4,147.2 101.6,137.7 104.6,137.7 "/>
<polygon points="106.7,147.2 103.7,147.2 107.8,137.7 110.8,137.7 "/>
<polygon points="110.3,147.2 107.3,147.2 111.4,137.7 114.4,137.7 "/>
<polygon points="113.8,147.2 110.8,147.2 115,137.7 118,137.7 "/>
<polygon points="120.4,147.1 117.4,147.1 121.6,137.6 124.6,137.6 "/>
<polygon points="124,147.1 121,147.1 125.2,137.6 128.2,137.6 "/>
<polygon points="130.3,147.1 127.3,147.1 131.4,137.6 134.4,137.6 "/>
<polygon points="133.8,147.1 130.8,147.1 135,137.6 138,137.6 "/>
<polygon points="137.4,147.1 134.4,147.1 138.6,137.6 141.6,137.6 "/>
<polygon points="143.8,147.1 140.8,147.1 145,137.6 148,137.6 "/>
<polygon points="147.4,147.1 144.4,147.1 148.6,137.6 151.6,137.6 "/>
<polygon points="153.7,147.1 150.7,147.1 154.8,137.6 157.8,137.6 "/>
<polygon points="157.3,147.1 154.3,147.1 158.4,137.6 161.4,137.6 "/>
<polygon points="160.8,147.1 157.8,147.1 162,137.6 165,137.6 "/>
<polygon points="168,147.4 165,147.4 169.2,137.8 172.2,137.8 "/>
<polygon points="171.6,147.4 168.6,147.4 172.8,137.8 175.8,137.8 "/>
<polygon points="177.8,147.4 174.8,147.4 179,137.8 182,137.8 "/>
<polygon points="181.4,147.4 178.4,147.4 182.6,137.8 185.6,137.8 "/>
<polygon points="185,147.4 182,147.4 186.2,137.8 189.2,137.8 "/>
<polygon points="191.4,147.4 188.4,147.4 192.6,137.8 195.6,137.8 "/>
<polygon points="195,147.4 192,147.4 196.2,137.8 199.2,137.8 "/>
<polygon points="201.3,147.4 198.3,147.4 202.4,137.8 205.4,137.8 "/>
<polygon points="204.8,147.4 201.8,147.4 206,137.8 209,137.8 "/>
<polygon points="208.4,147.4 205.4,147.4 209.6,137.8 212.6,137.8 "/>
<polygon points="215.6,147.2 212.6,147.2 216.8,137.7 219.8,137.7 "/>
<polygon points="219.2,147.2 216.2,147.2 220.3,137.7 223.3,137.7 "/>
<polygon points="225.4,147.2 222.4,147.2 226.6,137.7 229.6,137.7 "/>
<polygon points="229,147.2 226,147.2 230.2,137.7 233.2,137.7 "/>
<polygon points="232.6,147.2 229.6,147.2 233.8,137.7 236.8,137.7 "/>
<polygon points="239,147.2 236,147.2 240.2,137.7 243.2,137.7 "/>
<polygon points="242.6,147.2 239.6,147.2 243.8,137.7 246.8,137.7 "/>
<polygon points="248.8,147.2 245.8,147.2 250,137.7 253,137.7 "/>
<polygon points="252.4,147.2 249.4,147.2 253.6,137.7 256.6,137.7 "/>
<polygon points="256,147.2 253,147.2 257.2,137.7 260.2,137.7 "/>
<polygon points="125.3,160.5 129.2,160.5 127.3,235.9 "/>
<polygon points="150.7,160.5 154.6,160.5 152.6,235.9 "/>
<rect x="126.6" y="235.9" width="7.1" height="7.1"/>
<rect x="136.9" y="235.9" width="7.1" height="7.1"/>
<rect x="146.9" y="235.9" width="7.1" height="7.1"/>
<polygon points="73.1,158.3 82.1,158.3 77.6,214 "/>
<polygon points="253,163.3 262,163.3 257.5,243 "/>
</svg>
