<svg id="Layer_1" data-name="Layer 1" xmlns="http://www.w3.org/2000/svg" viewBox="0 0 271 243"><defs><style>.cls-1{fill:none;stroke-miterlimit:10;}.cls-1,.cls-2{stroke:#000;}.cls-2{stroke-linejoin:bevel;}</style></defs><title>piano</title><rect x="9.67" y="150.5" width="252" height="10"/><path class="cls-1" d="M135,216" transform="translate(-116.33 -117)"/><path class="cls-1" d="M135,216" transform="translate(-116.33 -117)"/><path class="cls-1" d="M333,117" transform="translate(-116.33 -117)"/><polygon points="216.67 0 33.59 95.06 252.5 112.75 26 99 18.67 99 216.67 0"/><polygon class="cls-2" points="270.5 135.21 270.5 162.21 265.83 162.21 264.08 158.67 264.15 150.21 252.5 135.21 252.5 135.25 18.5 135.25 18.5 135.21 6.85 150.21 6.92 158.67 5.17 162.21 0.5 162.21 0.5 135.21 18.5 126.21 232 125.06 18.5 122 18.5 112.75 252.5 112.75 252.5 126.21 270.5 135.21"/><polygon points="9.67 163.25 18.67 163.25 14.17 243 9.67 163.25"/><polygon points="18.67 147 15.67 147 19.84 137.48 22.84 137.48 18.67 147"/><polygon points="25.84 147 22.84 147 27 137.48 30 137.48 25.84 147"/><polygon points="29.42 147 26.42 147 30.59 137.48 33.59 137.48 29.42 147"/><polygon points="35.67 147 32.67 147 36.84 137.48 39.84 137.48 35.67 147"/><polygon points="39.25 147 36.25 147 40.42 137.48 43.42 137.48 39.25 147"/><polygon points="42.84 147 39.84 147 44 137.48 47 137.48 42.84 147"/><polygon points="49.25 147 46.25 147 50.42 137.48 53.42 137.48 49.25 147"/><polygon points="52.84 147 49.84 147 54 137.48 57 137.48 52.84 147"/><polygon points="59.09 147 56.09 147 60.25 137.48 63.25 137.48 59.09 147"/><polygon points="62.67 147 59.67 147 63.84 137.48 66.84 137.48 62.67 147"/><polygon points="66.25 147 63.25 147 67.42 137.48 70.42 137.48 66.25 147"/><polygon points="73.42 147.24 70.42 147.24 74.59 137.72 77.59 137.72 73.42 147.24"/><polygon points="77 147.24 74 147.24 78.17 137.72 81.17 137.72 77 147.24"/><polygon points="83.25 147.24 80.25 147.24 84.42 137.72 87.42 137.72 83.25 147.24"/><polygon points="86.84 147.24 83.84 147.24 88 137.72 91 137.72 86.84 147.24"/><polygon points="90.42 147.24 87.42 147.24 91.59 137.72 94.59 137.72 90.42 147.24"/><polygon points="96.84 147.24 93.84 147.24 98 137.72 101 137.72 96.84 147.24"/><polygon points="100.42 147.24 97.42 147.24 101.59 137.72 104.59 137.72 100.42 147.24"/><polygon points="106.67 147.24 103.67 147.24 107.84 137.72 110.84 137.72 106.67 147.24"/><polygon points="110.25 147.24 107.25 147.24 111.42 137.72 114.42 137.72 110.25 147.24"/><polygon points="113.84 147.24 110.84 147.24 115 137.72 118 137.72 113.84 147.24"/><polygon points="120.42 147.12 117.42 147.12 121.59 137.6 124.59 137.6 120.42 147.12"/><polygon points="124 147.12 121 147.12 125.17 137.6 128.17 137.6 124 147.12"/><polygon points="130.25 147.12 127.25 147.12 131.42 137.6 134.42 137.6 130.25 147.12"/><polygon points="133.84 147.12 130.84 147.12 135 137.6 138 137.6 133.84 147.12"/><polygon points="137.42 147.12 134.42 147.12 138.59 137.6 141.59 137.6 137.42 147.12"/><polygon points="143.84 147.12 140.84 147.12 145 137.6 148 137.6 143.84 147.12"/><polygon points="147.42 147.12 144.42 147.12 148.59 137.6 151.59 137.6 147.42 147.12"/><polygon points="153.67 147.12 150.67 147.12 154.84 137.6 157.84 137.6 153.67 147.12"/><polygon points="157.25 147.12 154.25 147.12 158.42 137.6 161.42 137.6 157.25 147.12"/><polygon points="160.84 147.12 157.84 147.12 162 137.6 165 137.6 160.84 147.12"/><polygon points="168 147.36 165 147.36 169.17 137.84 172.17 137.84 168 147.36"/><polygon points="171.59 147.36 168.59 147.36 172.75 137.84 175.75 137.84 171.59 147.36"/><polygon points="177.84 147.36 174.84 147.36 179 137.84 182 137.84 177.84 147.36"/><polygon points="181.42 147.36 178.42 147.36 182.59 137.84 185.59 137.84 181.42 147.36"/><polygon points="185 147.36 182 147.36 186.17 137.84 189.17 137.84 185 147.36"/><polygon points="191.42 147.36 188.42 147.36 192.59 137.84 195.59 137.84 191.42 147.36"/><polygon points="195 147.36 192 147.36 196.17 137.84 199.17 137.84 195 147.36"/><polygon points="201.25 147.36 198.25 147.36 202.42 137.84 205.42 137.84 201.25 147.36"/><polygon points="204.84 147.36 201.84 147.36 206 137.84 209 137.84 204.84 147.36"/><polygon points="208.42 147.36 205.42 147.36 209.59 137.84 212.59 137.84 208.42 147.36"/><polygon points="215.59 147.24 212.59 147.24 216.75 137.72 219.75 137.72 215.59 147.24"/><polygon points="219.17 147.24 216.17 147.24 220.34 137.72 223.34 137.72 219.17 147.24"/><polygon points="225.42 147.24 222.42 147.24 226.59 137.72 229.59 137.72 225.42 147.24"/><polygon points="229 147.24 226 147.24 230.17 137.72 233.17 137.72 229 147.24"/><polygon points="232.59 147.24 229.59 147.24 233.75 137.72 236.75 137.72 232.59 147.24"/><polygon points="239 147.24 236 147.24 240.17 137.72 243.17 137.72 239 147.24"/><polygon points="242.59 147.24 239.59 147.24 243.75 137.72 246.75 137.72 242.59 147.24"/><polygon points="248.84 147.24 245.84 147.24 250 137.72 253 137.72 248.84 147.24"/><polygon points="252.42 147.24 249.42 147.24 253.59 137.72 256.59 137.72 252.42 147.24"/><polygon points="256 147.24 253 147.24 257.17 137.72 260.17 137.72 256 147.24"/><polygon points="125.3 160.5 129.21 160.5 127.25 235.88 125.3 160.5"/><polygon points="150.67 160.5 154.59 160.5 152.63 235.88 150.67 160.5"/><rect x="126.59" y="235.88" width="7.12" height="7.13"/><rect x="136.88" y="235.88" width="7.12" height="7.13"/><rect x="146.94" y="235.88" width="7.12" height="7.13"/><polygon points="73.09 158.31 82.09 158.31 77.59 213.97 73.09 158.31"/><polygon points="253 163.25 262 163.25 257.5 243 253 163.25"/></svg>