<svg id="Layer_1" data-name="Layer 1" xmlns="http://www.w3.org/2000/svg" viewBox="0 0 452.71 456.67"><defs><style>.cls-1,.cls-2,.cls-4{fill:none;}.cls-1,.cls-2,.cls-3{stroke:#000;}.cls-1{stroke-miterlimit:10;}.cls-2,.cls-3{stroke-linecap:round;stroke-linejoin:round;}</style></defs><title>Theorbo</title><path class="cls-1" d="M481.88,19.62" transform="translate(-36 -8.94)"/><path class="cls-1" d="M5.75,495.75" transform="translate(-36 -8.94)"/><path d="M183.72,341.23c.05,28-39.3,107.4-67.58,121.54-5.79,2.89-12.66,3.15-19,2.61-6.76-.57-14.44-1.35-20.2-5.3a127.42,127.42,0,0,1-18.13-14.43c-5.45-5.45-15.34-18.42-15.34-18.42-5.13-6.61-6.56-14.58-7.26-22.76-.53-6.34-.27-13.21,2.62-19,14.15-28.28,93.56-67.62,121.49-67.62L172,329.51Z" transform="translate(-36 -8.94)"/><path class="cls-1" d="M44.18,463.23" transform="translate(-36 -8.94)"/><line class="cls-2" x1="445.88" y1="10.68" x2="275.21" y2="192.77"/><polygon class="cls-3" points="445.88 10.68 215.76 240.8 205.34 230.39 445.88 10.68"/><polygon points="212.94 259.58 220.78 250.68 213.33 243.24 213.33 243.23 205.88 235.78 196.98 243.62 212.94 259.58"/><polygon points="196.34 278.44 203.29 270.55 203.29 270.55 186.08 253.32 178.28 260.18 196.34 278.44"/><polygon points="204.61 269.05 211.62 261.09 195.47 244.94 187.51 251.95 204.61 269.05"/><path class="cls-4" d="M214.17,269l18.17,18.17" transform="translate(-36 -8.94)"/><polygon class="cls-3" points="275.21 192.77 223.21 248.26 215.77 240.82 275.21 192.77"/><polygon points="176.75 261.42 168.72 268.49 188.07 287.84 195.12 279.84 176.75 261.47 176.75 261.42"/><polygon points="186.74 289.35 167.21 269.82 159.94 276.22 159.94 276.22 180.35 296.62 186.74 289.35 186.74 289.35"/><polygon points="158.49 277.5 152.21 283.02 152.17 282.98 173.54 304.35 178.98 298.17 178.98 298.07 158.49 277.5"/><polygon points="150.75 284.31 144.56 289.76 166.8 312.01 172.21 305.86 150.75 284.39 150.75 284.31"/><polygon points="138.47 295.12 161.49 318.13 161.44 318.09 165.43 313.56 165.43 313.46 143.08 291.11 143.02 291.11 138.47 295.12"/><polygon points="156.98 323.16 160.12 319.59 137.02 296.49 136.97 296.44 133.4 299.58 133.39 299.58 156.98 323.16"/><polygon points="155.67 324.65 131.89 300.91 127.56 304.72 139.7 316.86 139.71 316.86 151.84 329 155.67 324.65"/><rect x="446.92" y="28.08" width="10.21" height="6.67" transform="translate(118.61 -319.38) rotate(45)"/><rect x="455.17" y="19.83" width="10.21" height="6.67" transform="translate(115.19 -327.63) rotate(45)"/><rect x="463.42" y="11.58" width="10.21" height="6.67" transform="translate(111.77 -335.88) rotate(45)"/><rect x="461.14" y="50.54" width="10.21" height="6.67" transform="translate(138.66 -322.85) rotate(45)"/><rect x="469.39" y="42.29" width="10.21" height="6.67" transform="translate(135.24 -331.1) rotate(45)"/><rect x="477.64" y="34.04" width="10.21" height="6.67" transform="translate(131.82 -339.35) rotate(45)"/><rect x="231.52" y="224.48" width="10.21" height="6.67" transform="translate(194.39 -109.54) rotate(45)"/><rect x="239.77" y="216.23" width="10.21" height="6.67" transform="translate(190.98 -117.79) rotate(45)"/><rect x="248.02" y="207.98" width="10.21" height="6.67" transform="translate(187.56 -126.04) rotate(45)"/><rect x="282.35" y="238.69" width="10.21" height="6.67" transform="translate(219.33 -141.32) rotate(45)"/><rect x="290.6" y="230.44" width="10.21" height="6.67" transform="translate(215.92 -149.57) rotate(45)"/><rect x="298.85" y="222.19" width="10.21" height="6.67" transform="translate(212.5 -157.82) rotate(45)"/><line class="cls-4" x1="8.18" y1="454.28" x2="133.86" y2="322.7"/></svg>