<svg id="Layer_1" data-name="Layer 1" xmlns="http://www.w3.org/2000/svg" viewBox="0 0 169.24 465.05"><title>violin</title><path d="M335.23,354.56c1.31-1.39,4.66-2.4,4.66-2.4l-3.64-5.1c-1.16.36-4.37,2.54-8.09-1.32-18.25-19-10.79-48.19-3.5-58.59,2.79-4,8.75-1.75,8.75-1.75l1.45-3.79s-4.75-5.45-2-9.56c6.84-10.22,10-34.23,5.21-56.91-5.44-25.62-27.24-38.9-52-41.7L279.74,327l12.06,33.61-11,3.93L278.47,358l-1.25,30.4-1.16,0L277.42,355l-5.05-14.08L270.44,388l-1.17-.05,2.05-50-5.75-16-2.71,66.33-1.17,0,2.83-69.21L258.76,303l-3.48,85-1.17-.05,3.6-87.88-40.2-112h0a48.15,48.15,0,0,0-15.87,27.09c-4.82,22.68-1.64,46.69,5.21,56.91,2.75,4.11-2,9.56-2,9.56l1.46,3.79s6-2.23,8.75,1.75c7.29,10.4,14.75,39.63-3.5,58.59-3.72,3.86-6.93,1.68-8.09,1.32l-3.64,5.1s3.34,1,4.66,2.4-22,24.95-19,59.11c2.09,23.57,12.75,47,34.59,58.69,21.63,11.55,49.75,10.11,49.75,10.11s28.13,1.44,49.76-10.11c21.84-11.66,32.5-35.12,34.59-58.69C357.24,379.51,333.92,356,335.23,354.56Zm-18.38-15.14a5.59,5.59,0,0,1-1.89,1.73,5.12,5.12,0,0,1-2.58.73,4.91,4.91,0,0,1-2.68-.87,8.23,8.23,0,0,1-1.89-1.83,19.32,19.32,0,0,1-2.33-4.29c-2.31-5.93-3.21-12.05-4-18.12-.34-3-.66-6.09-.9-9.12l-.7-9a32.86,32.86,0,0,0-.62-4.34,9,9,0,0,0-1.57-3.73,2.1,2.1,0,0,0-1.38-.88,2.54,2.54,0,0,0-1.71.61,12.15,12.15,0,0,0-2.78,3.44,10.36,10.36,0,0,1,2.12-4.16,3.53,3.53,0,0,1,2.35-1.25,3.63,3.63,0,0,1,2.63,1,11,11,0,0,1,2.56,4.31,29.11,29.11,0,0,1,1.11,4.61c1,6.09,1.57,12.13,2.35,18.13.36,3,.75,6,1.26,8.93a62.75,62.75,0,0,0,1.92,8.65,17.67,17.67,0,0,0,1.67,3.88,4.08,4.08,0,0,0,2.72,2.24,4.61,4.61,0,0,0,3.5-1.3,4.81,4.81,0,0,0,1.1-4A5,5,0,0,1,316.85,339.42Z" transform="translate(-185.24 -17.47)"/><path d="M284.87,173.32v0l-6.18,150.72L273.63,310l5.62-137v0C281.14,173,283,173.13,284.87,173.32Z" transform="translate(-185.24 -17.47)"/><path d="M278.08,172.9l-5.5,134.15-5.74-16L271.69,173C273.83,172.88,276,172.85,278.08,172.9Z" transform="translate(-185.24 -17.47)"/><path d="M270.52,173l-4.73,115.1L260,272.07l4.07-99.16v0c1.92,0,3.83.06,5.75.18Z" transform="translate(-185.24 -17.47)"/><path d="M262.94,172.89l-4,96.26-31.53-87.88h0c10.18-5.44,22.32-8.16,34.82-8.37Z" transform="translate(-185.24 -17.47)"/><polygon points="107.13 1.3 105.64 9.44 104.95 13.19 104.95 13.2 102.77 25.06 78.87 155.4 78.87 155.44 78.86 155.5 78.34 155.4 78.28 155.39 78.27 155.39 77.7 155.29 105.97 1.24 105.98 1.17 105.98 1.14 105.99 1.12 105.99 1.09 106.43 1.17 106.56 1.2 107.13 1.3"/><rect x="203.66" y="95.19" width="155.58" height="1.17" transform="translate(-36.1 344.53) rotate(-82.36)"/><polygon points="107.14 1.24 107.14 1.3 104.89 27.74 94.02 155.46 94.02 155.49 93.61 155.45 93.45 155.44 93.44 155.44 92.86 155.39 103.94 25.2 104.95 13.19 105.97 1.31 105.98 1.17 105.98 1.14 105.99 1.14 106.43 1.17 106.56 1.2 106.68 1.2 107.14 1.24"/><polygon points="107.14 1.22 107.14 1.3 100.8 155.92 100.11 155.89 100.04 155.88 100 155.88 99.64 155.87 99.64 155.85 104.89 27.74 105.47 13.81 105.64 9.44 105.97 1.31 105.98 1.17 106.56 1.2 106.68 1.2 107.14 1.22"/><polygon points="42.22 163.79 42.22 163.8 32.27 170.59 32.27 170.57 18 130.82 25.4 128.16 21.51 105.9 28.98 126.88 42.22 163.79"/><rect x="295.76" y="17.74" width="9.33" height="5.25" transform="translate(-183.52 -35.12) rotate(3.37)"/><rect x="295.25" y="26.47" width="9.33" height="5.25" transform="translate(-183 -35.08) rotate(3.37)"/><rect x="277.55" y="20.76" width="9.33" height="5.25" transform="translate(-176.89 -66.13) rotate(10)"/><rect x="276.03" y="29.37" width="9.33" height="5.25" transform="translate(-175.41 -65.74) rotate(10)"/></svg>